<svg width="520" height="533" viewBox="0 0 520 533" fill="none" xmlns="http://www.w3.org/2000/svg">
<g filter="url(#filter0_d_10_1023)">
<path d="M74.2982 130.748C74.2982 100.579 74.2982 85.4936 83.6708 76.121C93.0434 66.7484 108.128 66.7484 138.298 66.7484H342.298C372.468 66.7484 387.553 66.7484 396.926 76.121C406.298 85.4936 406.298 100.579 406.298 130.748V334.748C406.298 364.918 406.298 380.003 396.926 389.376C387.553 398.748 372.468 398.748 342.298 398.748H138.298C108.128 398.748 93.0434 398.748 83.6708 389.376C74.2982 380.003 74.2982 364.918 74.2982 334.748V130.748Z" fill="white"/>
<path d="M91.5854 381.461L92.8896 380.157L91.5854 381.461ZM389.011 381.461L387.707 380.157L389.011 381.461ZM389.011 84.0356L387.707 85.3398L389.011 84.0356ZM91.5854 84.0356L92.8896 85.3398L91.5854 84.0356ZM192.343 68.5928H288.254V64.904H192.343V68.5928ZM404.454 184.793V280.704H408.143V184.793H404.454ZM288.254 396.904H192.343V400.593H288.254V396.904ZM76.1426 280.704V184.793H72.4537V280.704H76.1426ZM192.343 396.904C164.467 396.904 143.746 396.9 127.825 394.76C111.957 392.626 101.133 388.401 92.8896 380.157L90.2812 382.765C99.3246 391.809 111.056 396.227 127.333 398.415C143.557 400.597 164.571 400.593 192.343 400.593V396.904ZM72.4537 280.704C72.4537 308.475 72.4498 329.489 74.6311 345.713C76.8195 361.99 81.2378 373.722 90.2812 382.765L92.8896 380.157C84.6458 371.913 80.4205 361.09 78.2871 345.222C76.1465 329.301 76.1426 308.579 76.1426 280.704H72.4537ZM404.454 280.704C404.454 308.579 404.45 329.301 402.309 345.222C400.176 361.09 395.951 371.913 387.707 380.157L390.315 382.765C399.359 373.722 403.777 361.99 405.965 345.713C408.147 329.489 408.143 308.475 408.143 280.704H404.454ZM288.254 400.593C316.025 400.593 337.039 400.597 353.263 398.415C369.54 396.227 381.272 391.809 390.315 382.765L387.707 380.157C379.463 388.401 368.639 392.626 352.771 394.76C336.85 396.9 316.129 396.904 288.254 396.904V400.593ZM288.254 68.5928C316.129 68.5928 336.85 68.5968 352.771 70.7373C368.639 72.8707 379.463 77.096 387.707 85.3398L390.315 82.7314C381.272 73.688 369.54 69.2697 353.263 67.0813C337.039 64.9 316.025 64.904 288.254 64.904V68.5928ZM408.143 184.793C408.143 157.022 408.147 136.008 405.965 119.784C403.777 103.507 399.359 91.7748 390.315 82.7314L387.707 85.3398C395.951 93.5836 400.176 104.407 402.309 120.275C404.45 136.196 404.454 156.917 404.454 184.793H408.143ZM192.343 64.904C164.571 64.904 143.557 64.9 127.333 67.0813C111.056 69.2697 99.3246 73.688 90.2812 82.7314L92.8896 85.3398C101.133 77.096 111.957 72.8707 127.825 70.7373C143.746 68.5968 164.467 68.5928 192.343 68.5928V64.904ZM76.1426 184.793C76.1426 156.917 76.1465 136.196 78.2871 120.275C80.4205 104.407 84.6458 93.5836 92.8896 85.3398L90.2812 82.7314C81.2378 91.7748 76.8195 103.507 74.6311 119.784C72.4498 136.008 72.4537 157.022 72.4537 184.793H76.1426Z" fill="#D9D9D9"/>
</g>
<path d="M241 248.261C249.981 248.261 257.261 240.981 257.261 232C257.261 223.019 249.981 215.739 241 215.739C232.019 215.739 224.739 223.019 224.739 232C224.739 240.981 232.019 248.261 241 248.261Z" fill="#61DAFB"/>
<path d="M241 265.315C289.189 265.315 328.254 250.4 328.254 232C328.254 213.6 289.189 198.685 241 198.685C192.811 198.685 153.745 213.6 153.745 232C153.745 250.4 192.811 265.315 241 265.315Z" stroke="#61DAFB" stroke-width="9.22222"/>
<path d="M212.148 248.658C236.243 290.391 268.693 316.764 284.627 307.565C300.561 298.365 293.946 257.076 269.852 215.342C245.757 173.609 213.307 147.236 197.373 156.435C181.438 165.635 188.053 206.925 212.148 248.658Z" stroke="#61DAFB" stroke-width="9.22222"/>
<path d="M212.148 215.342C188.053 257.075 181.438 298.365 197.373 307.565C213.307 316.764 245.757 290.391 269.852 248.658C293.947 206.924 300.562 165.635 284.627 156.435C268.693 147.236 236.243 173.609 212.148 215.342Z" stroke="#61DAFB" stroke-width="9.22222"/>
<g filter="url(#filter1_d_10_1023)">
<path d="M299.172 372.406C299.172 342.236 299.172 327.151 308.544 317.778C317.917 308.406 333.002 308.406 363.172 308.406H415.172C445.342 308.406 460.427 308.406 469.799 317.778C479.172 327.151 479.172 342.236 479.172 372.406V424.406C479.172 454.576 479.172 469.661 469.799 479.033C460.427 488.406 445.342 488.406 415.172 488.406H363.172C333.002 488.406 317.917 488.406 308.544 479.033C299.172 469.661 299.172 454.576 299.172 424.406V372.406Z" fill="white"/>
<path d="M308.544 479.033L307.837 479.74L308.544 479.033ZM469.799 479.033L469.092 478.326L469.799 479.033ZM469.799 317.778L470.506 317.071L469.799 317.778ZM363.172 309.406H415.172V307.406H363.172V309.406ZM478.172 372.406V424.406H480.172V372.406H478.172ZM415.172 487.406H363.172V489.406H415.172V487.406ZM300.172 424.406V372.406H298.172V424.406H300.172ZM363.172 487.406C348.059 487.406 336.824 487.404 328.192 486.243C319.589 485.086 313.721 482.796 309.251 478.326L307.837 479.74C312.74 484.643 319.101 487.039 327.926 488.225C336.722 489.408 348.115 489.406 363.172 489.406V487.406ZM298.172 424.406C298.172 439.462 298.17 450.856 299.352 459.652C300.539 468.477 302.934 474.837 307.837 479.74L309.251 478.326C304.782 473.857 302.491 467.988 301.334 459.385C300.174 450.753 300.172 439.519 300.172 424.406H298.172ZM478.172 424.406C478.172 439.519 478.17 450.753 477.009 459.385C475.852 467.988 473.562 473.857 469.092 478.326L470.506 479.74C475.409 474.837 477.805 468.477 478.991 459.652C480.174 450.856 480.172 439.462 480.172 424.406H478.172ZM415.172 489.406C430.228 489.406 441.622 489.408 450.418 488.225C459.243 487.039 465.603 484.643 470.506 479.74L469.092 478.326C464.623 482.796 458.754 485.086 450.151 486.243C441.519 487.404 430.285 487.406 415.172 487.406V489.406ZM415.172 309.406C430.285 309.406 441.519 309.408 450.151 310.568C458.754 311.725 464.623 314.016 469.092 318.485L470.506 317.071C465.603 312.168 459.243 309.773 450.418 308.586C441.622 307.404 430.228 307.406 415.172 307.406V309.406ZM480.172 372.406C480.172 357.349 480.174 345.956 478.991 337.16C477.805 328.335 475.409 321.974 470.506 317.071L469.092 318.485C473.562 322.955 475.852 328.823 477.009 337.426C478.17 346.058 478.172 357.293 478.172 372.406H480.172ZM363.172 307.406C348.115 307.406 336.722 307.404 327.926 308.586C319.101 309.773 312.74 312.168 307.837 317.071L309.251 318.485C313.721 314.016 319.589 311.725 328.192 310.568C336.824 309.408 348.059 309.406 363.172 309.406V307.406ZM300.172 372.406C300.172 357.293 300.174 346.058 301.334 337.426C302.491 328.823 304.782 322.955 309.251 318.485L307.837 317.071C302.934 321.974 300.539 328.335 299.352 337.16C298.17 345.956 298.172 357.349 298.172 372.406H300.172Z" fill="#D9D9D9"/>
</g>
<path d="M439 348H339V448H439V348Z" fill="#F7DF1E"/>
<path d="M406.175 426.125C408.189 429.414 410.81 431.832 415.444 431.832C419.338 431.832 421.825 429.886 421.825 427.197C421.825 423.975 419.27 422.833 414.984 420.959L412.635 419.951C405.854 417.062 401.349 413.443 401.349 405.792C401.349 398.744 406.719 393.379 415.111 393.379C421.086 393.379 425.381 395.459 428.476 400.903L421.159 405.602C419.548 402.713 417.81 401.575 415.111 401.575C412.359 401.575 410.614 403.321 410.614 405.602C410.614 408.421 412.36 409.562 416.392 411.308L418.741 412.314C426.725 415.738 431.233 419.229 431.233 427.076C431.233 435.537 424.587 440.171 415.662 440.171C406.935 440.171 401.297 436.013 398.538 430.562L406.175 426.125ZM372.979 426.94C374.456 429.559 375.798 431.773 379.027 431.773C382.114 431.773 384.062 430.565 384.062 425.868V393.916H393.459V425.995C393.459 435.725 387.754 440.154 379.427 440.154C371.903 440.154 367.546 436.26 365.33 431.571L372.979 426.94Z" fill="black"/>
<defs>
<filter id="filter0_d_10_1023" x="0.520409" y="0.348397" width="479.556" height="479.556" filterUnits="userSpaceOnUse" color-interpolation-filters="sRGB">
<feFlood flood-opacity="0" result="BackgroundImageFix"/>
<feColorMatrix in="SourceAlpha" type="matrix" values="0 0 0 0 0 0 0 0 0 0 0 0 0 0 0 0 0 0 127 0" result="hardAlpha"/>
<feOffset dy="7.37778"/>
<feGaussianBlur stdDeviation="36.8889"/>
<feComposite in2="hardAlpha" operator="out"/>
<feColorMatrix type="matrix" values="0 0 0 0 0.0367917 0 0 0 0 0.0348958 0 0 0 0 0.0484375 0 0 0 0.1 0"/>
<feBlend mode="normal" in2="BackgroundImageFix" result="effect1_dropShadow_10_1023"/>
<feBlend mode="normal" in="SourceGraphic" in2="effect1_dropShadow_10_1023" result="shape"/>
</filter>
<filter id="filter1_d_10_1023" x="259.172" y="272.406" width="260" height="260" filterUnits="userSpaceOnUse" color-interpolation-filters="sRGB">
<feFlood flood-opacity="0" result="BackgroundImageFix"/>
<feColorMatrix in="SourceAlpha" type="matrix" values="0 0 0 0 0 0 0 0 0 0 0 0 0 0 0 0 0 0 127 0" result="hardAlpha"/>
<feOffset dy="4"/>
<feGaussianBlur stdDeviation="20"/>
<feComposite in2="hardAlpha" operator="out"/>
<feColorMatrix type="matrix" values="0 0 0 0 0.0367917 0 0 0 0 0.0348958 0 0 0 0 0.0484375 0 0 0 0.1 0"/>
<feBlend mode="normal" in2="BackgroundImageFix" result="effect1_dropShadow_10_1023"/>
<feBlend mode="normal" in="SourceGraphic" in2="effect1_dropShadow_10_1023" result="shape"/>
</filter>
</defs>
</svg>
