<svg width="716" height="492" viewBox="0 0 716 492" fill="none" xmlns="http://www.w3.org/2000/svg">
<g filter="url(#filter0_d_48_219)">
<path d="M261.172 101.406C261.172 71.2359 261.172 56.1509 270.544 46.7783C279.917 37.4058 295.002 37.4058 325.172 37.4058H377.172C407.342 37.4058 422.427 37.4058 431.799 46.7783C441.172 56.1509 441.172 71.2359 441.172 101.406V153.406C441.172 183.576 441.172 198.661 431.799 208.033C422.427 217.406 407.342 217.406 377.172 217.406H325.172C295.002 217.406 279.917 217.406 270.544 208.033C261.172 198.661 261.172 183.576 261.172 153.406V101.406Z" fill="white"/>
<path d="M270.544 208.033L269.837 208.74L270.544 208.033ZM431.799 208.033L431.092 207.326L431.799 208.033ZM431.799 46.7783L432.506 46.0712L431.799 46.7783ZM325.172 38.4058H377.172V36.4058H325.172V38.4058ZM440.172 101.406V153.406H442.172V101.406H440.172ZM377.172 216.406H325.172V218.406H377.172V216.406ZM262.172 153.406V101.406H260.172V153.406H262.172ZM325.172 216.406C310.059 216.406 298.824 216.404 290.192 215.243C281.589 214.086 275.721 211.796 271.252 207.326L269.837 208.74C274.74 213.643 281.101 216.039 289.926 217.225C298.722 218.408 310.115 218.406 325.172 218.406V216.406ZM260.172 153.406C260.172 168.462 260.17 179.856 261.352 188.652C262.539 197.477 264.934 203.837 269.837 208.74L271.252 207.326C266.782 202.857 264.491 196.988 263.335 188.385C262.174 179.753 262.172 168.519 262.172 153.406H260.172ZM440.172 153.406C440.172 168.519 440.17 179.753 439.009 188.385C437.853 196.988 435.562 202.857 431.092 207.326L432.506 208.74C437.409 203.837 439.805 197.477 440.991 188.652C442.174 179.856 442.172 168.462 442.172 153.406H440.172ZM377.172 218.406C392.229 218.406 403.622 218.408 412.418 217.225C421.243 216.039 427.603 213.643 432.506 208.74L431.092 207.326C426.623 211.796 420.754 214.086 412.151 215.243C403.519 216.404 392.285 216.406 377.172 216.406V218.406ZM377.172 38.4058C392.285 38.4058 403.519 38.4079 412.151 39.5684C420.754 40.7251 426.623 43.0159 431.092 47.4855L432.506 46.0712C427.603 41.1682 421.243 38.7727 412.418 37.5863C403.622 36.4036 392.229 36.4058 377.172 36.4058V38.4058ZM442.172 101.406C442.172 86.3491 442.174 74.956 440.991 66.1598C439.805 57.3349 437.409 50.9743 432.506 46.0712L431.092 47.4855C435.562 51.955 437.853 57.8232 439.009 66.4263C440.17 75.0582 440.172 86.2925 440.172 101.406H442.172ZM325.172 36.4058C310.115 36.4058 298.722 36.4036 289.926 37.5863C281.101 38.7727 274.74 41.1682 269.837 46.0712L271.252 47.4855C275.721 43.0159 281.589 40.7251 290.192 39.5684C298.824 38.4079 310.059 38.4058 325.172 38.4058V36.4058ZM262.172 101.406C262.172 86.2925 262.174 75.0582 263.335 66.4263C264.491 57.8232 266.782 51.955 271.252 47.4855L269.837 46.0712C264.934 50.9743 262.539 57.3349 261.352 66.1598C260.17 74.956 260.172 86.3491 260.172 101.406H262.172Z" fill="#D9D9D9"/>
</g>
<path d="M401 77H301V177H401V77Z" fill="#F7DF1E"/>
<path d="M368.175 155.125C370.189 158.414 372.809 160.832 377.444 160.832C381.338 160.832 383.825 158.886 383.825 156.197C383.825 152.975 381.27 151.833 376.984 149.959L374.635 148.951C367.854 146.062 363.349 142.443 363.349 134.792C363.349 127.744 368.719 122.379 377.111 122.379C383.086 122.379 387.381 124.459 390.476 129.903L383.159 134.602C381.548 131.713 379.809 130.575 377.111 130.575C374.359 130.575 372.614 132.321 372.614 134.602C372.614 137.421 374.36 138.562 378.392 140.308L380.741 141.314C388.725 144.738 393.233 148.229 393.233 156.076C393.233 164.537 386.587 169.171 377.662 169.171C368.935 169.171 363.297 165.013 360.538 159.562L368.175 155.125ZM334.979 155.94C336.455 158.559 337.798 160.773 341.027 160.773C344.114 160.773 346.062 159.565 346.062 154.868V122.916H355.459V154.995C355.459 164.725 349.754 169.154 341.427 169.154C333.903 169.154 329.546 165.26 327.33 160.571L334.979 155.94Z" fill="black"/>
<g filter="url(#filter1_d_48_219)">
<path d="M45.8956 331.406C45.8956 301.236 45.8956 286.151 55.2682 276.778C64.6408 267.406 79.7257 267.406 109.896 267.406H161.896C192.066 267.406 207.15 267.406 216.523 276.778C225.896 286.151 225.896 301.236 225.896 331.406V383.406C225.896 413.576 225.896 428.661 216.523 438.033C207.15 447.406 192.066 447.406 161.896 447.406H109.896C79.7257 447.406 64.6408 447.406 55.2682 438.033C45.8956 428.661 45.8956 413.576 45.8956 383.406V331.406Z" fill="white"/>
<path d="M55.2682 438.033L54.5611 438.74L55.2682 438.033ZM216.523 438.033L215.816 437.326L216.523 438.033ZM216.523 276.778L217.23 276.071L216.523 276.778ZM109.896 268.406H161.896V266.406H109.896V268.406ZM224.896 331.406V383.406H226.896V331.406H224.896ZM161.896 446.406H109.896V448.406H161.896V446.406ZM46.8956 383.406V331.406H44.8956V383.406H46.8956ZM109.896 446.406C94.7824 446.406 83.5481 446.404 74.9162 445.243C66.313 444.086 60.4448 441.796 55.9753 437.326L54.5611 438.74C59.4642 443.643 65.8247 446.039 74.6497 447.225C83.4459 448.408 94.839 448.406 109.896 448.406V446.406ZM44.8956 383.406C44.8956 398.462 44.8935 409.856 46.0761 418.652C47.2626 427.477 49.658 433.837 54.5611 438.74L55.9753 437.326C51.5058 432.857 49.2149 426.988 48.0583 418.385C46.8978 409.753 46.8956 398.519 46.8956 383.406H44.8956ZM224.896 383.406C224.896 398.519 224.894 409.753 223.733 418.385C222.576 426.988 220.285 432.857 215.816 437.326L217.23 438.74C222.133 433.837 224.529 427.477 225.715 418.652C226.898 409.856 226.896 398.462 226.896 383.406H224.896ZM161.896 448.406C176.952 448.406 188.345 448.408 197.142 447.225C205.967 446.039 212.327 443.643 217.23 438.74L215.816 437.326C211.346 441.796 205.478 444.086 196.875 445.243C188.243 446.404 177.009 446.406 161.896 446.406V448.406ZM161.896 268.406C177.009 268.406 188.243 268.408 196.875 269.568C205.478 270.725 211.346 273.016 215.816 277.485L217.23 276.071C212.327 271.168 205.967 268.773 197.142 267.586C188.345 266.404 176.952 266.406 161.896 266.406V268.406ZM226.896 331.406C226.896 316.349 226.898 304.956 225.715 296.16C224.529 287.335 222.133 280.974 217.23 276.071L215.816 277.485C220.285 281.955 222.576 287.823 223.733 296.426C224.894 305.058 224.896 316.293 224.896 331.406H226.896ZM109.896 266.406C94.839 266.406 83.4459 266.404 74.6497 267.586C65.8248 268.773 59.4642 271.168 54.5611 276.071L55.9753 277.485C60.4448 273.016 66.313 270.725 74.9162 269.568C83.5481 268.408 94.7824 268.406 109.896 268.406V266.406ZM46.8956 331.406C46.8956 316.293 46.8978 305.058 48.0583 296.426C49.2149 287.823 51.5058 281.955 55.9753 277.485L54.5611 276.071C49.658 280.974 47.2626 287.335 46.0761 296.16C44.8935 304.956 44.8956 316.349 44.8956 331.406H46.8956Z" fill="#D9D9D9"/>
</g>
<path d="M136 327.008C122.666 327.008 114.333 333.673 110.999 347.002C116 340.337 121.833 337.838 128.5 339.504C132.304 340.454 135.022 343.214 138.032 346.268C142.934 351.242 148.607 356.999 161.001 356.999C174.333 356.999 182.667 350.334 186 337.004C181.001 343.669 175.167 346.169 168.5 344.503C164.697 343.553 161.978 340.793 158.969 337.74C154.067 332.765 148.392 327.008 136 327.008ZM110.999 356.999C97.6669 356.999 89.3325 363.664 86 376.994C90.9994 370.329 96.8328 367.83 103.5 369.497C107.303 370.448 110.022 373.207 113.031 376.259C117.933 381.233 123.608 386.992 136 386.992C149.334 386.992 157.667 380.327 161.001 366.997C156 373.662 150.167 376.162 143.5 374.495C139.696 373.546 136.978 370.785 133.968 367.732C129.066 362.758 123.393 356.999 110.999 356.999Z" fill="#06B6D4"/>
<g filter="url(#filter2_d_48_219)">
<path d="M490.448 100.703C490.448 70.533 490.448 55.448 499.82 46.0755C509.193 36.7029 524.278 36.7029 554.448 36.7029H606.448C636.618 36.7029 651.703 36.7029 661.075 46.0755C670.448 55.448 670.448 70.533 670.448 100.703V152.703C670.448 182.873 670.448 197.958 661.075 207.33C651.703 216.703 636.618 216.703 606.448 216.703H554.448C524.278 216.703 509.193 216.703 499.82 207.33C490.448 197.958 490.448 182.873 490.448 152.703V100.703Z" fill="white"/>
<path d="M499.82 207.33L499.113 208.037L499.82 207.33ZM661.075 207.33L660.368 206.623L661.075 207.33ZM661.075 46.0755L661.782 45.3684L661.075 46.0755ZM554.448 37.7029H606.448V35.7029H554.448V37.7029ZM669.448 100.703V152.703H671.448V100.703H669.448ZM606.448 215.703H554.448V217.703H606.448V215.703ZM491.448 152.703V100.703H489.448V152.703H491.448ZM554.448 215.703C539.335 215.703 528.1 215.701 519.468 214.54C510.865 213.384 504.997 211.093 500.527 206.623L499.113 208.037C504.016 212.94 510.377 215.336 519.202 216.522C527.998 217.705 539.391 217.703 554.448 217.703V215.703ZM489.448 152.703C489.448 167.76 489.446 179.153 490.628 187.949C491.815 196.774 494.21 203.134 499.113 208.037L500.527 206.623C496.058 202.154 493.767 196.285 492.61 187.682C491.45 179.05 491.448 167.816 491.448 152.703H489.448ZM669.448 152.703C669.448 167.816 669.446 179.05 668.285 187.682C667.128 196.285 664.838 202.154 660.368 206.623L661.782 208.037C666.685 203.134 669.081 196.774 670.267 187.949C671.45 179.153 671.448 167.76 671.448 152.703H669.448ZM606.448 217.703C621.504 217.703 632.898 217.705 641.694 216.522C650.519 215.336 656.879 212.94 661.782 208.037L660.368 206.623C655.899 211.093 650.03 213.384 641.427 214.54C632.795 215.701 621.561 215.703 606.448 215.703V217.703ZM606.448 37.7029C621.561 37.7029 632.795 37.705 641.427 38.8655C650.03 40.0222 655.899 42.313 660.368 46.7826L661.782 45.3684C656.879 40.4653 650.519 38.0699 641.694 36.8834C632.898 35.7008 621.504 35.7029 606.448 35.7029V37.7029ZM671.448 100.703C671.448 85.6462 671.45 74.2531 670.267 65.4569C669.081 56.632 666.685 50.2714 661.782 45.3684L660.368 46.7826C664.838 51.2521 667.128 57.1203 668.285 65.7234C669.446 74.3554 669.448 85.5897 669.448 100.703H671.448ZM554.448 35.7029C539.391 35.7029 527.998 35.7008 519.202 36.8834C510.377 38.0699 504.016 40.4653 499.113 45.3684L500.527 46.7826C504.997 42.313 510.865 40.0222 519.468 38.8655C528.1 37.705 539.335 37.7029 554.448 37.7029V35.7029ZM491.448 100.703C491.448 85.5897 491.45 74.3554 492.61 65.7234C493.767 57.1203 496.058 51.2521 500.527 46.7826L499.113 45.3684C494.21 50.2714 491.815 56.632 490.628 65.4569C489.446 74.2531 489.448 85.6462 489.448 100.703H491.448Z" fill="#D9D9D9"/>
</g>
<path d="M553.596 112.64H572.457V114.131H555.325V125.36H571.435V126.852H555.325V139.179H572.653V140.671H553.596V112.64ZM574.146 112.64H576.15L585.031 124.967L594.107 112.64L606.453 96.9805L586.17 126.263L596.622 140.671H594.54L585.031 127.558L575.482 140.671H573.439L583.97 126.263L574.146 112.64ZM597.369 114.131V112.64H618.862V114.131H608.96V140.671H607.231V114.131H597.369Z" fill="black"/>
<path d="M530 112.639H532.161L561.962 157.02L549.647 140.671L531.808 114.76L531.729 140.671H530V112.639Z" fill="black"/>
<path d="M618.688 138.729C619.046 138.729 619.306 138.457 619.306 138.105C619.306 137.753 619.046 137.48 618.688 137.48C618.335 137.48 618.07 137.753 618.07 138.105C618.07 138.457 618.335 138.729 618.688 138.729ZM620.387 137.087C620.387 138.126 621.14 138.805 622.237 138.805C623.406 138.805 624.113 138.105 624.113 136.89V132.611H623.171V136.885C623.171 137.56 622.83 137.92 622.229 137.92C621.691 137.92 621.325 137.585 621.312 137.087H620.387ZM625.345 137.032C625.412 138.113 626.316 138.805 627.662 138.805C629.1 138.805 630 138.08 630 136.923C630 136.014 629.487 135.511 628.242 135.222L627.574 135.058C626.783 134.874 626.463 134.627 626.463 134.195C626.463 133.65 626.96 133.294 627.704 133.294C628.41 133.294 628.898 133.642 628.987 134.199H629.903C629.849 133.181 628.949 132.465 627.717 132.465C626.392 132.465 625.509 133.181 625.509 134.258C625.509 135.146 626.009 135.674 627.107 135.93L627.889 136.119C628.692 136.307 629.045 136.584 629.045 137.045C629.045 137.581 628.49 137.971 627.733 137.971C626.922 137.971 626.358 137.606 626.278 137.032H625.345Z" fill="black"/>
<g filter="url(#filter3_d_48_219)">
<path d="M271.343 331.406C271.343 301.236 271.343 286.151 280.716 276.778C290.088 267.406 305.173 267.406 335.343 267.406H387.343C417.513 267.406 432.598 267.406 441.971 276.778C451.343 286.151 451.343 301.236 451.343 331.406V383.406C451.343 413.576 451.343 428.661 441.971 438.033C432.598 447.406 417.513 447.406 387.343 447.406H335.343C305.173 447.406 290.088 447.406 280.716 438.033C271.343 428.661 271.343 413.576 271.343 383.406V331.406Z" fill="white"/>
<path d="M280.716 438.033L280.009 438.74L280.716 438.033ZM441.971 438.033L441.264 437.326L441.971 438.033ZM441.971 276.778L442.678 276.071L441.971 276.778ZM335.343 268.406H387.343V266.406H335.343V268.406ZM450.343 331.406V383.406H452.343V331.406H450.343ZM387.343 446.406H335.343V448.406H387.343V446.406ZM272.343 383.406V331.406H270.343V383.406H272.343ZM335.343 446.406C320.23 446.406 308.996 446.404 300.364 445.243C291.761 444.086 285.892 441.796 281.423 437.326L280.009 438.74C284.912 443.643 291.272 446.039 300.097 447.225C308.893 448.408 320.287 448.406 335.343 448.406V446.406ZM270.343 383.406C270.343 398.462 270.341 409.856 271.524 418.652C272.71 427.477 275.106 433.837 280.009 438.74L281.423 437.326C276.953 432.857 274.663 426.988 273.506 418.385C272.345 409.753 272.343 398.519 272.343 383.406H270.343ZM450.343 383.406C450.343 398.519 450.341 409.753 449.181 418.385C448.024 426.988 445.733 432.857 441.264 437.326L442.678 438.74C447.581 433.837 449.976 427.477 451.163 418.652C452.345 409.856 452.343 398.462 452.343 383.406H450.343ZM387.343 448.406C402.4 448.406 413.793 448.408 422.589 447.225C431.414 446.039 437.775 443.643 442.678 438.74L441.264 437.326C436.794 441.796 430.926 444.086 422.323 445.243C413.691 446.404 402.456 446.406 387.343 446.406V448.406ZM387.343 268.406C402.456 268.406 413.691 268.408 422.323 269.568C430.926 270.725 436.794 273.016 441.264 277.485L442.678 276.071C437.775 271.168 431.414 268.773 422.589 267.586C413.793 266.404 402.4 266.406 387.343 266.406V268.406ZM452.343 331.406C452.343 316.349 452.345 304.956 451.163 296.16C449.976 287.335 447.581 280.974 442.678 276.071L441.264 277.485C445.733 281.955 448.024 287.823 449.181 296.426C450.341 305.058 450.343 316.293 450.343 331.406H452.343ZM335.343 266.406C320.287 266.406 308.893 266.404 300.097 267.586C291.272 268.773 284.912 271.168 280.009 276.071L281.423 277.485C285.892 273.016 291.761 270.725 300.364 269.568C308.996 268.408 320.23 268.406 335.343 268.406V266.406ZM272.343 331.406C272.343 316.293 272.345 305.058 273.506 296.426C274.663 287.823 276.953 281.955 281.423 277.485L280.009 276.071C275.106 280.974 272.71 287.335 271.524 296.16C270.341 304.956 270.343 316.349 270.343 331.406H272.343Z" fill="#D9D9D9"/>
</g>
<path d="M311 307H411V407H311V307Z" fill="#017ACB"/>
<path d="M359.016 344.031H363.813V352.312H350.844V389.156L350.5 389.25C350.031 389.375 343.859 389.375 342.531 389.234L341.469 389.141V352.312H328.5V344.031L332.609 343.984C334.859 343.953 340.641 343.953 345.453 343.984C350.266 344.016 356.359 344.031 359.016 344.031ZM395.625 385.25C393.719 387.266 391.672 388.391 388.266 389.312C386.781 389.719 386.531 389.734 383.188 389.719C379.844 389.703 379.578 389.703 377.953 389.281C373.75 388.203 370.359 386.094 368.047 383.109C367.391 382.266 366.313 380.516 366.313 380.297C366.313 380.234 366.469 380.094 366.672 380C366.875 379.906 367.297 379.641 367.641 379.437C367.984 379.234 368.609 378.859 369.031 378.641C369.453 378.422 370.672 377.703 371.734 377.062C372.797 376.422 373.766 375.906 373.875 375.906C373.984 375.906 374.188 376.125 374.344 376.391C375.281 377.969 377.469 379.984 379.016 380.672C379.969 381.078 382.078 381.531 383.094 381.531C384.031 381.531 385.75 381.125 386.672 380.703C387.656 380.25 388.156 379.797 388.75 378.891C389.156 378.25 389.203 378.078 389.188 376.859C389.188 375.734 389.125 375.422 388.813 374.906C387.938 373.469 386.75 372.719 381.938 370.594C376.969 368.391 374.734 367.078 372.922 365.312C371.578 364 371.313 363.641 370.469 362C369.375 359.891 369.234 359.203 369.219 356.062C369.203 353.859 369.25 353.141 369.484 352.391C369.813 351.266 370.875 349.094 371.359 348.547C372.359 347.375 372.719 347.016 373.422 346.437C375.547 344.687 378.859 343.531 382.031 343.422C382.391 343.422 383.578 343.484 384.688 343.562C387.875 343.828 390.047 344.609 392.141 346.281C393.719 347.531 396.109 350.469 395.875 350.859C395.719 351.094 389.484 355.25 389.078 355.375C388.828 355.453 388.656 355.359 388.313 354.953C386.188 352.406 385.328 351.859 383.266 351.734C381.797 351.641 381.016 351.812 380.031 352.469C379 353.156 378.5 354.203 378.5 355.656C378.516 357.781 379.328 358.781 382.328 360.266C384.266 361.219 385.922 362 386.047 362C386.234 362 390.25 364 391.297 364.625C396.172 367.484 398.156 370.422 398.672 375.484C399.047 379.297 397.969 382.781 395.625 385.25Z" fill="white"/>
<g filter="url(#filter4_d_48_219)">
<path d="M495.896 331.406C495.896 301.236 495.896 286.151 505.268 276.778C514.641 267.406 529.726 267.406 559.896 267.406H611.896C642.065 267.406 657.15 267.406 666.523 276.778C675.896 286.151 675.896 301.236 675.896 331.406V383.406C675.896 413.576 675.896 428.661 666.523 438.033C657.15 447.406 642.065 447.406 611.896 447.406H559.896C529.726 447.406 514.641 447.406 505.268 438.033C495.896 428.661 495.896 413.576 495.896 383.406V331.406Z" fill="white"/>
<path d="M505.268 438.033L504.561 438.74L505.268 438.033ZM666.523 438.033L665.816 437.326L666.523 438.033ZM666.523 276.778L667.23 276.071L666.523 276.778ZM559.896 268.406H611.896V266.406H559.896V268.406ZM674.896 331.406V383.406H676.896V331.406H674.896ZM611.896 446.406H559.896V448.406H611.896V446.406ZM496.896 383.406V331.406H494.896V383.406H496.896ZM559.896 446.406C544.782 446.406 533.548 446.404 524.916 445.243C516.313 444.086 510.445 441.796 505.975 437.326L504.561 438.74C509.464 443.643 515.825 446.039 524.65 447.225C533.446 448.408 544.839 448.406 559.896 448.406V446.406ZM494.896 383.406C494.896 398.462 494.893 409.856 496.076 418.652C497.262 427.477 499.658 433.837 504.561 438.74L505.975 437.326C501.506 432.857 499.215 426.988 498.058 418.385C496.898 409.753 496.896 398.519 496.896 383.406H494.896ZM674.896 383.406C674.896 398.519 674.893 409.753 673.733 418.385C672.576 426.988 670.285 432.857 665.816 437.326L667.23 438.74C672.133 433.837 674.529 427.477 675.715 418.652C676.898 409.856 676.896 398.462 676.896 383.406H674.896ZM611.896 448.406C626.952 448.406 638.345 448.408 647.141 447.225C655.966 446.039 662.327 443.643 667.23 438.74L665.816 437.326C661.346 441.796 655.478 444.086 646.875 445.243C638.243 446.404 627.009 446.406 611.896 446.406V448.406ZM611.896 268.406C627.009 268.406 638.243 268.408 646.875 269.568C655.478 270.725 661.346 273.016 665.816 277.485L667.23 276.071C662.327 271.168 655.966 268.773 647.141 267.586C638.345 266.404 626.952 266.406 611.896 266.406V268.406ZM676.896 331.406C676.896 316.349 676.898 304.956 675.715 296.16C674.529 287.335 672.133 280.974 667.23 276.071L665.816 277.485C670.285 281.955 672.576 287.823 673.733 296.426C674.893 305.058 674.896 316.293 674.896 331.406H676.896ZM559.896 266.406C544.839 266.406 533.446 266.404 524.65 267.586C515.825 268.773 509.464 271.168 504.561 276.071L505.975 277.485C510.445 273.016 516.313 270.725 524.916 269.568C533.548 268.408 544.782 268.406 559.896 268.406V266.406ZM496.896 331.406C496.896 316.293 496.898 305.058 498.058 296.426C499.215 287.823 501.506 281.955 505.975 277.485L504.561 276.071C499.658 280.974 497.262 287.335 496.076 296.16C494.893 304.956 494.896 316.349 494.896 331.406H496.896Z" fill="#D9D9D9"/>
</g>
<path d="M585.64 307.26C560.253 307.26 561.839 318.269 561.839 318.269L561.867 329.675H586.092V333.099H552.245C552.245 333.099 536 331.257 536 356.871C536 382.486 550.179 381.578 550.179 381.578H558.641V369.691C558.641 369.691 558.184 355.513 572.593 355.513H596.621C596.621 355.513 610.12 355.731 610.12 342.466V320.533C610.12 320.533 612.17 307.26 585.64 307.26ZM572.282 314.93C572.854 314.93 573.421 315.042 573.95 315.261C574.479 315.48 574.96 315.801 575.365 316.205C575.769 316.61 576.09 317.091 576.309 317.62C576.528 318.149 576.64 318.716 576.64 319.288C576.64 319.861 576.528 320.428 576.309 320.957C576.09 321.486 575.769 321.966 575.365 322.371C574.96 322.776 574.479 323.097 573.95 323.316C573.421 323.535 572.854 323.647 572.282 323.646C571.709 323.647 571.142 323.535 570.613 323.316C570.084 323.097 569.604 322.776 569.199 322.371C568.794 321.966 568.473 321.486 568.254 320.957C568.035 320.428 567.923 319.861 567.924 319.288C567.923 318.716 568.035 318.149 568.254 317.62C568.473 317.091 568.794 316.61 569.199 316.205C569.604 315.801 570.084 315.48 570.613 315.261C571.142 315.042 571.709 314.93 572.282 314.93Z" fill="url(#paint0_linear_48_219)"/>
<path d="M586.361 406.74C611.747 406.74 610.162 395.731 610.162 395.731L610.134 384.326H585.908V380.901H619.755C619.755 380.901 636 382.744 636 357.128C636 331.513 621.821 332.422 621.821 332.422H613.359V344.308C613.359 344.308 613.815 358.487 599.407 358.487H575.379C575.379 358.487 561.88 358.269 561.88 371.534V393.467C561.88 393.467 559.83 406.74 586.36 406.74H586.361ZM599.719 399.071C599.146 399.071 598.579 398.959 598.05 398.74C597.521 398.521 597.041 398.2 596.636 397.795C596.231 397.391 595.91 396.91 595.691 396.381C595.472 395.852 595.36 395.285 595.36 394.713C595.36 394.14 595.472 393.573 595.691 393.044C595.91 392.515 596.231 392.034 596.636 391.629C597.04 391.225 597.521 390.904 598.05 390.685C598.579 390.466 599.146 390.353 599.719 390.354C600.291 390.353 600.858 390.466 601.387 390.685C601.916 390.904 602.397 391.225 602.801 391.629C603.206 392.034 603.527 392.515 603.746 393.044C603.965 393.573 604.077 394.14 604.077 394.712C604.077 395.285 603.965 395.852 603.746 396.381C603.527 396.91 603.206 397.39 602.801 397.795C602.397 398.2 601.916 398.521 601.387 398.74C600.858 398.958 600.291 399.071 599.719 399.07V399.071Z" fill="url(#paint1_linear_48_219)"/>
<g filter="url(#filter5_d_48_219)">
<path d="M40.6195 101.406C40.6195 71.2359 40.6195 56.1509 49.9921 46.7783C59.3647 37.4058 74.4496 37.4058 104.62 37.4058H156.62C186.789 37.4058 201.874 37.4058 211.247 46.7783C220.62 56.1509 220.62 71.2359 220.62 101.406V153.406C220.62 183.576 220.62 198.661 211.247 208.033C201.874 217.406 186.789 217.406 156.62 217.406H104.62C74.4496 217.406 59.3647 217.406 49.9921 208.033C40.6195 198.661 40.6195 183.576 40.6195 153.406V101.406Z" fill="white"/>
<path d="M49.9921 208.033L49.285 208.74L49.9921 208.033ZM211.247 208.033L210.54 207.326L211.247 208.033ZM211.247 46.7783L211.954 46.0712L211.247 46.7783ZM104.62 38.4058H156.62V36.4058H104.62V38.4058ZM219.62 101.406V153.406H221.62V101.406H219.62ZM156.62 216.406H104.62V218.406H156.62V216.406ZM41.6195 153.406V101.406H39.6195V153.406H41.6195ZM104.62 216.406C89.5063 216.406 78.272 216.404 69.6401 215.243C61.0369 214.086 55.1687 211.796 50.6992 207.326L49.285 208.74C54.188 213.643 60.5486 216.039 69.3736 217.225C78.1697 218.408 89.5628 218.406 104.62 218.406V216.406ZM39.6195 153.406C39.6195 168.462 39.6174 179.856 40.8 188.652C41.9865 197.477 44.3819 203.837 49.285 208.74L50.6992 207.326C46.2297 202.857 43.9388 196.988 42.7822 188.385C41.6216 179.753 41.6195 168.519 41.6195 153.406H39.6195ZM219.62 153.406C219.62 168.519 219.617 179.753 218.457 188.385C217.3 196.988 215.009 202.857 210.54 207.326L211.954 208.74C216.857 203.837 219.253 197.477 220.439 188.652C221.622 179.856 221.62 168.462 221.62 153.406H219.62ZM156.62 218.406C171.676 218.406 183.069 218.408 191.865 217.225C200.69 216.039 207.051 213.643 211.954 208.74L210.54 207.326C206.07 211.796 200.202 214.086 191.599 215.243C182.967 216.404 171.733 216.406 156.62 216.406V218.406ZM156.62 38.4058C171.733 38.4058 182.967 38.4079 191.599 39.5684C200.202 40.7251 206.07 43.0159 210.54 47.4855L211.954 46.0712C207.051 41.1682 200.69 38.7727 191.865 37.5863C183.069 36.4036 171.676 36.4058 156.62 36.4058V38.4058ZM221.62 101.406C221.62 86.3491 221.622 74.956 220.439 66.1598C219.253 57.3349 216.857 50.9743 211.954 46.0712L210.54 47.4855C215.009 51.955 217.3 57.8232 218.457 66.4263C219.617 75.0582 219.62 86.2925 219.62 101.406H221.62ZM104.62 36.4058C89.5628 36.4058 78.1697 36.4036 69.3736 37.5863C60.5486 38.7727 54.188 41.1682 49.285 46.0712L50.6992 47.4855C55.1687 43.0159 61.0369 40.7251 69.6401 39.5684C78.272 38.4079 89.5063 38.4058 104.62 38.4058V36.4058ZM41.6195 101.406C41.6195 86.2925 41.6216 75.0582 42.7822 66.4263C43.9388 57.8232 46.2297 51.955 50.6992 47.4855L49.285 46.0712C44.3819 50.9743 41.9865 57.3349 40.8 66.1598C39.6174 74.956 39.6195 86.3491 39.6195 101.406H41.6195Z" fill="#D9D9D9"/>
</g>
<path d="M131 135.816C135.869 135.816 139.816 131.869 139.816 127C139.816 122.131 135.869 118.184 131 118.184C126.131 118.184 122.184 122.131 122.184 127C122.184 131.869 126.131 135.816 131 135.816Z" fill="#61DAFB"/>
<path d="M131 145.063C157.127 145.063 178.307 136.976 178.307 127C178.307 117.024 157.127 108.937 131 108.937C104.873 108.937 83.6934 117.024 83.6934 127C83.6934 136.976 104.873 145.063 131 145.063Z" stroke="#61DAFB" stroke-width="5"/>
<path d="M115.357 136.031C128.421 158.658 146.014 172.957 154.653 167.969C163.292 162.981 159.706 140.595 146.643 117.969C133.579 95.3423 115.986 81.0434 107.347 86.0313C98.7075 91.0191 102.294 113.405 115.357 136.031Z" stroke="#61DAFB" stroke-width="5"/>
<path d="M115.357 117.969C102.294 140.595 98.7075 162.981 107.347 167.969C115.986 172.957 133.579 158.658 146.643 136.031C159.706 113.405 163.292 91.0191 154.653 86.0313C146.014 81.0434 128.421 95.3423 115.357 117.969Z" stroke="#61DAFB" stroke-width="5"/>
<defs>
<filter id="filter0_d_48_219" x="221.172" y="1.40576" width="260" height="260" filterUnits="userSpaceOnUse" color-interpolation-filters="sRGB">
<feFlood flood-opacity="0" result="BackgroundImageFix"/>
<feColorMatrix in="SourceAlpha" type="matrix" values="0 0 0 0 0 0 0 0 0 0 0 0 0 0 0 0 0 0 127 0" result="hardAlpha"/>
<feOffset dy="4"/>
<feGaussianBlur stdDeviation="20"/>
<feComposite in2="hardAlpha" operator="out"/>
<feColorMatrix type="matrix" values="0 0 0 0 0.0367917 0 0 0 0 0.0348958 0 0 0 0 0.0484375 0 0 0 0.1 0"/>
<feBlend mode="normal" in2="BackgroundImageFix" result="effect1_dropShadow_48_219"/>
<feBlend mode="normal" in="SourceGraphic" in2="effect1_dropShadow_48_219" result="shape"/>
</filter>
<filter id="filter1_d_48_219" x="5.89563" y="231.406" width="260" height="260" filterUnits="userSpaceOnUse" color-interpolation-filters="sRGB">
<feFlood flood-opacity="0" result="BackgroundImageFix"/>
<feColorMatrix in="SourceAlpha" type="matrix" values="0 0 0 0 0 0 0 0 0 0 0 0 0 0 0 0 0 0 127 0" result="hardAlpha"/>
<feOffset dy="4"/>
<feGaussianBlur stdDeviation="20"/>
<feComposite in2="hardAlpha" operator="out"/>
<feColorMatrix type="matrix" values="0 0 0 0 0.0367917 0 0 0 0 0.0348958 0 0 0 0 0.0484375 0 0 0 0.1 0"/>
<feBlend mode="normal" in2="BackgroundImageFix" result="effect1_dropShadow_48_219"/>
<feBlend mode="normal" in="SourceGraphic" in2="effect1_dropShadow_48_219" result="shape"/>
</filter>
<filter id="filter2_d_48_219" x="450.448" y="0.702881" width="260" height="260" filterUnits="userSpaceOnUse" color-interpolation-filters="sRGB">
<feFlood flood-opacity="0" result="BackgroundImageFix"/>
<feColorMatrix in="SourceAlpha" type="matrix" values="0 0 0 0 0 0 0 0 0 0 0 0 0 0 0 0 0 0 127 0" result="hardAlpha"/>
<feOffset dy="4"/>
<feGaussianBlur stdDeviation="20"/>
<feComposite in2="hardAlpha" operator="out"/>
<feColorMatrix type="matrix" values="0 0 0 0 0.0367917 0 0 0 0 0.0348958 0 0 0 0 0.0484375 0 0 0 0.1 0"/>
<feBlend mode="normal" in2="BackgroundImageFix" result="effect1_dropShadow_48_219"/>
<feBlend mode="normal" in="SourceGraphic" in2="effect1_dropShadow_48_219" result="shape"/>
</filter>
<filter id="filter3_d_48_219" x="231.343" y="231.406" width="260" height="260" filterUnits="userSpaceOnUse" color-interpolation-filters="sRGB">
<feFlood flood-opacity="0" result="BackgroundImageFix"/>
<feColorMatrix in="SourceAlpha" type="matrix" values="0 0 0 0 0 0 0 0 0 0 0 0 0 0 0 0 0 0 127 0" result="hardAlpha"/>
<feOffset dy="4"/>
<feGaussianBlur stdDeviation="20"/>
<feComposite in2="hardAlpha" operator="out"/>
<feColorMatrix type="matrix" values="0 0 0 0 0.0367917 0 0 0 0 0.0348958 0 0 0 0 0.0484375 0 0 0 0.1 0"/>
<feBlend mode="normal" in2="BackgroundImageFix" result="effect1_dropShadow_48_219"/>
<feBlend mode="normal" in="SourceGraphic" in2="effect1_dropShadow_48_219" result="shape"/>
</filter>
<filter id="filter4_d_48_219" x="455.896" y="231.406" width="260" height="260" filterUnits="userSpaceOnUse" color-interpolation-filters="sRGB">
<feFlood flood-opacity="0" result="BackgroundImageFix"/>
<feColorMatrix in="SourceAlpha" type="matrix" values="0 0 0 0 0 0 0 0 0 0 0 0 0 0 0 0 0 0 127 0" result="hardAlpha"/>
<feOffset dy="4"/>
<feGaussianBlur stdDeviation="20"/>
<feComposite in2="hardAlpha" operator="out"/>
<feColorMatrix type="matrix" values="0 0 0 0 0.0367917 0 0 0 0 0.0348958 0 0 0 0 0.0484375 0 0 0 0.1 0"/>
<feBlend mode="normal" in2="BackgroundImageFix" result="effect1_dropShadow_48_219"/>
<feBlend mode="normal" in="SourceGraphic" in2="effect1_dropShadow_48_219" result="shape"/>
</filter>
<filter id="filter5_d_48_219" x="0.619507" y="1.40576" width="260" height="260" filterUnits="userSpaceOnUse" color-interpolation-filters="sRGB">
<feFlood flood-opacity="0" result="BackgroundImageFix"/>
<feColorMatrix in="SourceAlpha" type="matrix" values="0 0 0 0 0 0 0 0 0 0 0 0 0 0 0 0 0 0 127 0" result="hardAlpha"/>
<feOffset dy="4"/>
<feGaussianBlur stdDeviation="20"/>
<feComposite in2="hardAlpha" operator="out"/>
<feColorMatrix type="matrix" values="0 0 0 0 0.0367917 0 0 0 0 0.0348958 0 0 0 0 0.0484375 0 0 0 0.1 0"/>
<feBlend mode="normal" in2="BackgroundImageFix" result="effect1_dropShadow_48_219"/>
<feBlend mode="normal" in="SourceGraphic" in2="effect1_dropShadow_48_219" result="shape"/>
</filter>
<linearGradient id="paint0_linear_48_219" x1="545.61" y1="316.208" x2="595.167" y2="365.27" gradientUnits="userSpaceOnUse">
<stop stop-color="#387EB8"/>
<stop offset="1" stop-color="#366994"/>
</linearGradient>
<linearGradient id="paint1_linear_48_219" x1="576.028" y1="347.713" x2="629.246" y2="398.022" gradientUnits="userSpaceOnUse">
<stop stop-color="#FFE052"/>
<stop offset="1" stop-color="#FFC331"/>
</linearGradient>
</defs>
</svg>
